<?xml version="1.0" encoding="UTF-8"?>
<svg xmlns="http://www.w3.org/2000/svg" id="Outline" viewBox="0 0 512 512" width="512" height="512"><path d="M247.068,110.97l7.621,6.351a16,16,0,0,1,1.071,23.6l-13.417,13.417a8,8,0,0,0,11.314,11.314l13.416-13.417a32,32,0,0,0-2.141-47.21l-7.621-6.351a16,16,0,0,1-1.071-23.605l13.417-13.417a8,8,0,0,0-11.314-11.314L244.927,63.76a32,32,0,0,0,2.141,47.21Z"/><path d="M162.343,146.343a8,8,0,0,0,11.314,11.314L184.612,146.7a24,24,0,0,0-2.572-36.173l-2.481-1.859a8,8,0,0,1-.857-12.058l10.955-10.955a8,8,0,0,0-11.314-11.314L167.388,85.3a24,24,0,0,0,2.572,36.173l2.481,1.859a8,8,0,0,1,.857,12.058Z"/><path d="M322.343,146.343a8,8,0,0,0,11.314,11.314L344.612,146.7a24,24,0,0,0-2.572-36.173l-2.481-1.859a8,8,0,0,1-.857-12.058l10.955-10.955a8,8,0,0,0-11.314-11.314L327.388,85.3a24,24,0,0,0,2.573,36.173l2.481,1.859a8,8,0,0,1,.856,12.058Z"/><path d="M493.289,282.166A40.111,40.111,0,0,0,453.712,248H424V216c0-12.04-10.107-22.714-28.46-30.055C379.507,179.532,358.362,176,336,176s-43.507,3.532-59.54,9.945c-8.774,3.51-15.658,7.783-20.46,12.6-4.8-4.818-11.686-9.091-20.46-12.6C219.507,179.532,198.362,176,176,176s-43.507,3.532-59.54,9.945C98.107,193.286,88,203.96,88,216v32H58.288a40.111,40.111,0,0,0-39.577,34.166,266.5,266.5,0,0,0,0,75.668A40.111,40.111,0,0,0,58.288,392H88v32c0,12.04,10.107,22.714,28.46,30.055C132.493,460.468,153.638,464,176,464s43.507-3.532,59.54-9.945c8.774-3.51,15.658-7.783,20.46-12.6,4.8,4.818,11.686,9.091,20.46,12.6C292.493,460.468,313.638,464,336,464s43.507-3.532,59.54-9.945C413.893,446.714,424,436.04,424,424V392h29.712a40.111,40.111,0,0,0,39.577-34.166A266.5,266.5,0,0,0,493.289,282.166ZM88,344H74.652a7.988,7.988,0,0,1-7.609-5.5,57.41,57.41,0,0,1,0-36.99,7.988,7.988,0,0,1,7.609-5.5H88Zm0-64H74.652A23.955,23.955,0,0,0,51.84,296.519a73.848,73.848,0,0,0,0,46.962A23.955,23.955,0,0,0,74.652,360H88v16H58.288a24.032,24.032,0,0,1-23.739-20.437,250.567,250.567,0,0,1,0-71.125A24.032,24.032,0,0,1,58.288,264H88ZM248,396.12l-47.688-49.659a30.583,30.583,0,0,1,0-41.942,27.012,27.012,0,0,1,39.378,0L248,313.173Zm16-82.947,8.312-8.654a27.013,27.013,0,0,1,39.377,0,30.584,30.584,0,0,1,0,41.942L264,396.12ZM176,192c43.952,0,72,14.215,72,24,0,3.453-3.508,7.457-9.96,11.194C225.452,215.375,202.106,208,176,208s-49.452,7.375-62.04,19.194C107.508,223.457,104,219.453,104,216,104,206.215,132.048,192,176,192Zm44.781,42.239C209,237.666,193.808,240,176,240s-33-2.334-44.781-5.761C140.828,228.557,156.29,224,176,224S211.172,228.557,220.781,234.239ZM176,448c-43.952,0-72-14.215-72-24V239.779a75.057,75.057,0,0,0,12.46,6.276C132.493,252.468,153.638,256,176,256s43.507-3.532,59.54-9.945A75.057,75.057,0,0,0,248,239.779v50.608a42.977,42.977,0,0,0-59.233,3.051c-16.958,17.672-16.959,46.428,0,64.1L248,419.219V424C248,433.785,219.952,448,176,448Zm232-24c0,9.785-28.048,24-72,24s-72-14.215-72-24v-4.781l59.233-61.68c16.959-17.673,16.958-46.429,0-64.1h0A42.976,42.976,0,0,0,264,290.387V239.779a75.057,75.057,0,0,0,12.46,6.276C292.493,252.468,313.638,256,336,256s43.507-3.532,59.54-9.945A75.057,75.057,0,0,0,408,239.779ZM291.219,234.239C300.828,228.557,316.29,224,336,224s35.172,4.557,44.781,10.239C369,237.666,353.808,240,336,240S303,237.666,291.219,234.239Zm106.821-7.045C385.452,215.375,362.106,208,336,208s-49.452,7.375-62.04,19.194C267.508,223.457,264,219.453,264,216c0-9.785,28.048-24,72-24s72,14.215,72,24C408,219.453,404.492,223.457,398.04,227.194ZM424,296h13.348a7.988,7.988,0,0,1,7.609,5.5,57.41,57.41,0,0,1,0,36.99,7.988,7.988,0,0,1-7.609,5.5H424Zm53.451,59.562A24.032,24.032,0,0,1,453.712,376H424V360h13.348a23.955,23.955,0,0,0,22.812-16.519,73.848,73.848,0,0,0,0-46.962A23.955,23.955,0,0,0,437.348,280H424V264h29.712a24.032,24.032,0,0,1,23.739,20.437A250.567,250.567,0,0,1,477.451,355.562Z"/></svg>
