<svg height="512" viewBox="0 0 64 64" width="512" xmlns="http://www.w3.org/2000/svg"><g id="outline"><path d="m27 28h10v2h-10z"/><path d="m54 28h2v2h-2z"/><path d="m50 28h2v2h-2z"/><path d="m43.088 18.411 1.824-.822c-2.045-4.539-6.43-7.589-10.912-7.589h-2v2h2c3.709 0 7.361 2.576 9.088 6.411z"/><path d="m28 10h2v2h-2z"/><path d="m26 40h2v15h-2z"/><path d="m31 43h2v14h-2z"/><path d="m36 40h2v15h-2z"/><path d="m56 24.508v-.508a3.988 3.988 0 0 0 -6.31-3.254 17.984 17.984 0 0 0 -35.38 0 3.988 3.988 0 0 0 -6.31 3.254v.508s-3.666 2.825-3.692 2.85a6.331 6.331 0 0 0 -2.308 5.642 1 1 0 0 0 1 1h16.382l1.723 3.447a1 1 0 0 0 .895.553h20a1 1 0 0 0 .9-.553l1.718-3.447h16.382a1 1 0 0 0 1-1 6.331 6.331 0 0 0 -2.308-5.642c-.026-.025-3.692-2.85-3.692-2.85zm-4-2.508a2 2 0 0 1 2 2h-4a2 2 0 0 1 2-2zm-20-14a16.019 16.019 0 0 1 16 16h-2a4 4 0 0 0 -8 0h-2a4 4 0 0 0 -8 0h-2a4 4 0 0 0 -8 0h-2a16.019 16.019 0 0 1 16-16zm12 16h-4a2 2 0 0 1 4 0zm-10 0h-4a2 2 0 0 1 4 0zm-10 0h-4a2 2 0 0 1 4 0zm-12-2a2 2 0 0 1 2 2h-4a2 2 0 0 1 2-2zm29.382 14h-18.764l-1-2h20.764zm-37.367-4a4.1 4.1 0 0 1 1.639-3.162l3.687-2.838h45.318l3.687 2.838a4.1 4.1 0 0 1 1.639 3.162z"/></g></svg>